<?xml version="1.0" standalone="no"?>
<!DOCTYPE svg PUBLIC "-//W3C//DTD SVG 20010904//EN"
 "http://www.w3.org/TR/2001/REC-SVG-20010904/DTD/svg10.dtd">
<svg version="1.0" xmlns="http://www.w3.org/2000/svg"
 width="480.000000pt" height="480.000000pt" viewBox="0 0 480.000000 480.000000"
 preserveAspectRatio="xMidYMid meet">

<g transform="translate(0.000000,480.000000) scale(0.100000,-0.100000)"
fill="#000000" stroke="none">
<path d="M2517 3218 c-546 -550 -659 -626 -1262 -843 -528 -190 -730 -331
-854 -595 -100 -215 -127 -516 -68 -751 89 -346 360 -612 714 -701 74 -19 115
-23 253 -22 349 1 677 84 1045 264 807 395 1507 1208 1709 1984 13 51 27 119
31 149 l7 57 -48 52 c-71 79 -168 235 -241 386 0 2 -23 -13 -50 -34 -88 -68
-226 -122 -381 -149 l-75 -13 6 137 c6 148 23 228 66 307 l28 51 -181 6 c-171
5 -263 19 -339 52 -15 6 -83 -58 -360 -337z m458 -154 c18 -19 25 -38 25 -65
0 -47 -51 -112 -219 -280 -308 -305 -643 -514 -1266 -789 -403 -177 -498 -231
-596 -338 -79 -85 -109 -146 -119 -243 -9 -96 -32 -127 -97 -136 -55 -7 -93
25 -100 87 -7 66 21 184 64 269 69 136 237 289 418 379 33 16 157 71 275 122
470 201 770 362 1006 538 115 86 317 276 452 425 47 51 56 57 93 57 30 0 46
-6 64 -26z"/>
</g>
</svg>
